HIERARCHY
ROOT Hips
{
	OFFSET 0.000000 8.830580 0.000000
	CHANNELS 6 Xposition Yposition Zposition Zrotation Yrotation Xrotation 
	JOINT Spine
	{
		OFFSET 0.000000 0.010000 0.000000
		CHANNELS 3 Zrotation Yrotation Xrotation
		JOINT Spine1
		{
			OFFSET 0.000000 2.459130 0.000000
			CHANNELS 3 Zrotation Yrotation Xrotation
			JOINT Neck
			{
				OFFSET 0.000000 2.484630 0.000000
				CHANNELS 3 Zrotation Yrotation Xrotation
				JOINT Head_virtual
				{
					OFFSET 0.000000 0.000000 0.000000
					CHANNELS 3 Zrotation Yrotation Xrotation
					JOINT Head
					{
						OFFSET 0.000000 0.927525 0.000000
						CHANNELS 3 Zrotation Yrotation Xrotation
						End Site
						{
							OFFSET 0.000000 0.000000 0.000000
						}
					}
				}
				JOINT LeftUpArm_virtual
				{
					OFFSET 0.000000 0.000000 0.000000
					CHANNELS 3 Zrotation Yrotation Xrotation
					JOINT LeftUpArm
					{
						OFFSET 1.248820 0.000000 0.000000
						CHANNELS 3 Zrotation Yrotation Xrotation
						JOINT LeftForeArm
						{
							OFFSET 2.597580 0.000000 0.000000
							CHANNELS 3 Zrotation Yrotation Xrotation
							JOINT LeftHand
							{
								OFFSET 2.455420 0.000000 0.000000
								CHANNELS 3 Zrotation Yrotation Xrotation
								End Site
								{
									OFFSET 0.000000 0.000000 0.000000
								}
							}
						}
					}
				}
				JOINT RightUpArm_virtual
				{
					OFFSET -0.000000 -0.000000 -0.000000
					CHANNELS 3 Zrotation Yrotation Xrotation
					JOINT RightUpArm
					{
						OFFSET -1.248820 -0.000000 -0.000000
						CHANNELS 3 Zrotation Yrotation Xrotation
						JOINT RightForeArm
						{
							OFFSET -2.597580 -0.000000 -0.000000
							CHANNELS 3 Zrotation Yrotation Xrotation
							JOINT RightHand
							{
								OFFSET -2.455420 -0.000000 -0.000000
								CHANNELS 3 Zrotation Yrotation Xrotation
								End Site
								{
									OFFSET 0.000000 0.000000 0.000000
								}
							}
						}
					}
				}
			}
		}
	}
	JOINT LeftUpLeg
	{
		OFFSET 1.271939 0.000000 0.000000
		CHANNELS 3 Zrotation Yrotation Xrotation
		JOINT LeftLowLeg
		{
			OFFSET 0.000000 -4.342910 0.000000
			CHANNELS 3 Zrotation Yrotation Xrotation
			JOINT LeftFoot
			{
				OFFSET 0.000000 -4.487670 0.000000
				CHANNELS 3 Zrotation Yrotation Xrotation
				JOINT LeftToeBase
				{
					OFFSET 0.000000 0.000000 1.515070
					CHANNELS 3 Zrotation Yrotation Xrotation
					End Site
					{
						OFFSET 0.000000 0.000000 0.000000
					}
				}
			}
		}
	}
	JOINT RightUpLeg
	{
		OFFSET -1.271939 0.000000 0.000000
		CHANNELS 3 Zrotation Yrotation Xrotation
		JOINT RightLowLeg
		{
			OFFSET 0.000000 -4.342910 0.000000
			CHANNELS 3 Zrotation Yrotation Xrotation
			JOINT RightFoot
			{
				OFFSET 0.000000 -4.487670 0.000000
				CHANNELS 3 Zrotation Yrotation Xrotation
				JOINT RightToeBase
				{
					OFFSET 0.000000 0.000000 1.515070
					CHANNELS 3 Zrotation Yrotation Xrotation
					End Site
					{
						OFFSET 0.000000 0.000000 0.000000
					}
				}
			}
		}
	}
}
MOTION
Frames: 15
Frame Time: 0.041667
-14.412237 8.867503 36.045817 175.022967 35.175997 -179.256428 -6.058543 2.912874 -22.361551 -10.862927 2.053554 10.695650 0.000000 0.000000 0.000000 26.782873 58.923214 20.158074 -13.493701 -66.690236 -73.022137 -17.693001 15.553400 8.454010 -24.884300 6.172630 53.711601 180.000000 -81.332603 -180.000000 76.890297 -34.562698 -1.818590 21.172001 -12.617600 1.039001 55.691898 -9.057180 8.162370 0.000000 15.873800 0.000000 -32.120899 -1.709620 1.579560 -14.195854 13.845693 -2.286511 0.000000 0.000000 14.416800 -11.339208 -0.176919 -2.651113 0.000000 0.000000 -22.963650 -5.519701 -23.526896 -8.489489 0.000000 0.000000 60.866501 41.596966 -8.357896 43.691760 0.000000 0.000000 -19.605620 
-14.415811 8.862927 36.056710 174.879411 34.552317 -179.254062 -6.150861 3.017205 -22.005696 -11.093466 2.229237 10.663465 0.000000 0.000000 0.000000 26.108280 59.038847 19.833580 -14.171598 -66.892336 -72.434109 -17.777201 15.571000 8.489990 -24.699301 5.987890 53.649601 -180.000000 -81.237701 180.000000 77.113098 -34.562599 -1.987640 21.280001 -12.468300 1.122986 55.596699 -8.831260 8.312090 0.000000 15.893800 0.000000 -32.119301 -1.860160 1.206220 -14.249539 13.538505 -2.319784 0.000000 0.000000 14.373800 -11.556911 -0.607687 -2.844061 0.000000 0.000000 -22.749650 -5.787226 -23.011844 -8.966302 0.000000 0.000000 62.295502 42.389981 -7.637772 44.672488 0.000000 0.000000 -19.852530 
-14.419716 8.859193 36.072706 174.645809 33.952748 -179.161451 -6.363674 3.034530 -21.721702 -11.224606 2.439065 10.549667 0.000000 0.000000 0.000000 25.452647 59.106553 19.513392 -15.006694 -67.067929 -71.667159 -17.781300 15.587900 8.653992 -24.592100 5.778100 53.561901 180.000000 -81.119102 -180.000000 77.130501 -34.666401 -2.083460 21.281300 -12.340300 1.324005 55.589699 -8.476010 8.372050 0.000000 15.883300 0.000000 -32.308399 -1.934520 1.315950 -14.355435 13.435807 -2.643458 0.000000 0.000000 14.598300 -12.771231 -1.771133 -2.853564 0.000000 0.000000 -22.966850 -6.012355 -22.581331 -9.899754 0.000000 0.000000 64.293602 42.800596 -7.823062 45.006207 0.000000 0.000000 -20.289160 
-14.424820 8.856695 36.094028 174.394929 33.373670 -179.030012 -6.605139 3.018921 -21.445131 -11.347921 2.652093 10.442110 0.000000 0.000000 0.000000 24.707581 59.190012 19.010390 -15.649974 -67.201096 -71.039605 -17.692801 15.607000 8.683014 -24.516001 5.602670 53.707199 -180.000000 -80.977501 180.000000 77.005501 -34.699299 -1.789090 21.219200 -12.203900 1.415985 55.635799 -8.219230 8.345120 0.000000 15.982500 0.000000 -32.326099 -1.919140 1.111810 -14.510278 13.207579 -3.019840 0.000000 0.000000 14.719700 -13.409258 -2.491621 -2.862408 0.000000 0.000000 -23.100490 -6.206184 -22.200994 -11.097406 0.000000 0.000000 66.546799 42.731083 -8.140810 45.024686 0.000000 0.000000 -20.338970 
-14.431363 8.856784 36.120095 174.180660 32.954009 -179.035390 -6.787774 3.128598 -20.950293 -11.489666 2.904513 10.229983 0.000000 0.000000 0.000000 24.192151 59.283731 18.793591 -16.064656 -67.368387 -70.626452 -17.557699 15.570300 8.830994 -24.501499 5.450440 53.739799 -180.000000 -80.912300 -180.000000 76.934196 -34.793400 -1.540420 21.109100 -12.129900 1.553009 55.723499 -7.902680 8.442200 0.000000 16.072700 0.000000 -32.249298 -1.411030 1.405700 -14.614841 13.055451 -3.196763 0.000000 0.000000 14.679200 -13.971864 -3.045986 -2.841918 0.000000 0.000000 -22.943580 -6.382180 -21.436962 -12.294012 0.000000 0.000000 68.751801 42.173575 -7.925502 45.505502 0.000000 0.000000 -19.819690 
-14.433866 8.861571 36.144889 174.116849 32.372031 -179.045522 -6.916227 3.147853 -20.521255 -11.538776 3.094290 10.193920 0.000000 0.000000 0.000000 23.731603 59.322254 18.638499 -16.415718 -67.587974 -70.270410 -17.440399 15.462600 9.013000 -24.500999 5.338260 53.761501 -180.000000 -80.901802 180.000000 76.822403 -34.812000 -1.371700 20.991501 -12.039400 1.563995 55.807098 -7.697690 8.529080 0.000000 16.224800 0.000000 -32.258999 -1.309590 2.298370 -14.571368 12.492724 -3.273609 0.000000 0.000000 14.677900 -14.818779 -3.398304 -2.699250 0.000000 0.000000 -23.335700 -6.473366 -20.864990 -13.205180 0.000000 0.000000 70.484200 41.543747 -7.697416 45.820173 0.000000 0.000000 -19.198460 
-14.433640 8.867453 36.172098 174.267415 31.738500 -178.959129 -6.962881 3.132985 -20.053255 -11.486431 3.187670 10.116918 0.000000 0.000000 0.000000 23.431549 59.248236 18.587881 -17.214525 -67.725942 -69.529569 -17.348400 15.404400 9.118011 -24.481800 5.219230 53.891800 -180.000000 -80.930000 180.000000 76.845200 -34.748600 -1.083940 20.836100 -11.973300 1.500000 55.825401 -7.596830 8.766000 0.000000 16.178600 0.000000 -32.068401 0.069135 1.774310 -14.341833 11.929087 -3.254170 0.000000 0.000000 14.480000 -15.479752 -3.723373 -2.693590 0.000000 0.000000 -23.278440 -6.322956 -20.271946 -14.052642 0.000000 0.000000 71.800003 41.133479 -7.946044 45.851973 0.000000 0.000000 -19.227910 
-14.431801 8.872862 36.200037 174.432311 31.068331 -178.751178 -7.023627 3.048831 -19.793384 -11.361569 3.244815 10.130312 0.000000 0.000000 0.000000 23.231622 59.172982 18.707262 -17.992572 -67.909521 -68.828955 -17.262400 15.340200 9.121002 -24.504400 5.127510 54.113998 -180.000000 -81.039902 180.000000 76.907402 -34.728901 -1.013940 20.663900 -11.846800 1.477997 55.883099 -7.450390 8.724900 0.000000 16.230900 0.000000 -32.041801 0.500205 1.783750 -14.127023 11.277334 -3.372856 0.000000 0.000000 14.360200 -15.292269 -3.676215 -2.646850 0.000000 0.000000 -23.332920 -6.085023 -19.728064 -14.966984 0.000000 0.000000 72.668602 40.414301 -8.029774 45.821023 0.000000 0.000000 -19.884980 
-14.429475 8.874389 36.229001 174.648956 30.275720 -178.496227 -7.058680 2.977734 -19.416166 -11.259696 3.255792 10.004233 0.000000 0.000000 0.000000 22.909765 59.020749 18.538164 -18.704920 -68.041066 -68.117499 -17.128000 15.254600 9.204010 -24.531099 4.979280 54.439098 180.000000 -81.139702 -180.000000 77.191002 -34.459599 -0.834430 20.583799 -11.882400 1.377991 55.830601 -7.414890 8.791220 0.000000 16.474199 0.000000 -32.156601 0.516119 1.847560 -13.943173 10.516913 -3.497618 0.000000 0.000000 14.149100 -14.468893 -3.170198 -2.659973 0.000000 0.000000 -23.411090 -5.799755 -19.340442 -15.829406 0.000000 0.000000 73.051201 39.520061 -8.286795 45.489185 0.000000 0.000000 -19.697280 
-14.431014 8.870355 36.261744 174.813643 29.596622 -178.202563 -7.096221 2.994088 -18.964275 -11.162124 3.284212 9.664725 0.000000 0.000000 0.000000 22.773979 58.926411 18.678848 -19.214295 -68.247995 -67.648388 -17.053101 15.140300 9.269012 -24.506001 4.848980 54.757500 -180.000000 -81.261398 180.000000 77.279999 -34.268700 -0.926415 20.516701 -11.918600 1.319000 55.711300 -7.398310 8.958830 0.000000 16.658100 0.000000 -32.307899 0.393600 1.593970 -13.931235 9.466850 -3.779598 0.000000 0.000000 13.957800 -12.889576 -1.793793 -2.723736 0.000000 0.000000 -23.404690 -5.532290 -18.838489 -16.822220 0.000000 0.000000 72.985802 38.041088 -8.531995 45.208583 0.000000 0.000000 -20.494000 
-14.431872 8.860801 36.290745 175.022685 28.694028 -177.754674 -7.076617 2.929646 -18.811908 -11.093624 3.231507 9.614032 0.000000 0.000000 0.000000 22.470314 58.731362 18.449645 -19.803789 -68.402737 -67.109021 -16.969400 14.989700 9.210999 -24.474100 4.709650 55.191200 180.000000 -81.348000 -180.000000 77.510696 -34.001499 -0.829669 20.419201 -11.903200 1.171997 55.656601 -7.435450 8.920860 0.000000 16.798000 0.000000 -32.407001 0.176883 1.721250 -13.979337 7.917032 -4.200104 0.000000 0.000000 13.821300 -10.297896 0.413137 -2.771072 0.000000 0.000000 -23.346570 -5.213888 -18.476892 -17.732391 0.000000 0.000000 72.286301 36.403982 -8.161142 44.692752 0.000000 0.000000 -19.789050 
-14.432615 8.845794 36.317572 175.216978 27.713039 -177.538409 -6.974106 2.906554 -18.437472 -11.158440 3.158140 9.573286 0.000000 0.000000 0.000000 22.195674 58.536559 18.145771 -20.422263 -68.492569 -66.618845 -16.831400 14.865600 9.139008 -24.460100 4.561640 55.615501 180.000000 -81.484001 -180.000000 77.629799 -33.872200 -0.674730 20.435400 -11.938200 1.144989 55.533600 -7.375150 8.863470 0.000000 16.910601 0.000000 -32.471802 0.022525 1.591940 -14.045332 5.484805 -4.419253 0.000000 0.000000 13.765500 -7.185000 3.661251 -2.811042 0.000000 0.000000 -22.950550 -5.007006 -18.038753 -18.230262 0.000000 0.000000 71.038902 36.422519 -8.440570 44.062195 0.000000 0.000000 -20.155250 
-14.434160 8.825100 36.342736 175.340960 26.710631 -177.476450 -6.868295 2.914916 -17.948311 -11.264374 3.148447 9.610444 0.000000 0.000000 0.000000 21.772924 58.316159 17.519589 -21.107676 -68.525018 -66.165374 -16.827900 14.735900 9.173004 -24.253201 4.318000 55.983898 -180.000000 -81.564903 180.000000 77.862900 -33.758999 -0.831270 20.567301 -12.008700 1.056000 55.325500 -7.369260 8.658030 0.000000 16.990499 0.000000 -32.452702 0.012194 1.586060 -14.179347 2.008254 -4.597160 0.000000 0.000000 13.878400 -3.584176 8.045697 -2.571529 0.000000 0.000000 -22.598120 -4.909723 -17.479901 -18.501395 0.000000 0.000000 69.394600 36.442850 -8.606785 43.286754 0.000000 0.000000 -20.611410 
-14.438348 8.801108 36.364908 175.312488 25.795220 -177.563014 -6.755133 3.034702 -17.504138 -11.493682 3.237332 9.747536 0.000000 0.000000 0.000000 21.565043 58.181214 17.222948 -21.372702 -68.664792 -66.172294 -16.875401 14.509200 9.428009 -23.997999 4.013000 56.166401 180.000000 -81.617996 -180.000000 78.398903 -33.468201 -1.104270 20.765499 -12.017400 1.170990 55.108101 -7.211360 8.418900 0.000000 17.016800 0.000000 -32.362000 -0.395982 1.396610 -14.460679 -2.160267 -4.883279 0.000000 0.000000 14.408500 -0.519609 12.700226 -2.011227 0.000000 0.000000 -22.926200 -5.001073 -16.700264 -18.657054 0.000000 0.000000 67.680397 36.294276 -8.612790 42.810072 0.000000 0.000000 -16.927610 
-14.443447 8.775733 36.393691 175.079874 24.899586 -177.846362 -6.763843 3.104702 -16.934805 -11.793748 3.402661 9.925555 0.000000 0.000000 0.000000 21.392811 57.952653 16.828571 -21.777231 -68.727862 -66.038070 -17.060600 14.235100 9.610992 -23.545000 3.766290 56.325500 180.000000 -81.551804 -180.000000 79.276497 -33.120300 -1.669270 21.104401 -11.909700 1.365997 54.838402 -6.904250 8.186630 0.000000 16.926001 0.000000 -32.246799 -0.791108 1.126860 -14.769208 -6.733705 -5.376828 0.000000 0.000000 15.678800 -0.677617 16.284072 -2.619349 0.000000 0.000000 -22.697070 -5.421346 -14.745822 -19.141194 0.000000 0.000000 67.704697 37.826444 -7.694318 47.873185 0.000000 0.000000 -20.564250 
